<svg width="327" height="82" viewBox="0 0 327 82" fill="none" xmlns="http://www.w3.org/2000/svg">
<rect x="11.8342" y="13.834" width="56.3314" height="56.8047" rx="2" fill="#81351B"/>
<rect x="40" y="2" width="56.5685" height="56.5685" rx="2" transform="rotate(45 40 2)" fill="#944125"/>
<circle cx="40" cy="42" r="15" fill="url(#paint0_linear_13_38)"/>
<path fill-rule="evenodd" clip-rule="evenodd" d="M40 27C31.9919 27 25.5 33.4919 25.5 41.5C25.5 49.5081 31.9919 56 40 56C48.0081 56 54.5 49.5081 54.5 41.5C54.5 33.4919 48.0081 27 40 27ZM24.5 41.5C24.5 32.9396 31.4396 26 40 26C48.5604 26 55.5 32.9396 55.5 41.5C55.5 50.0604 48.5604 57 40 57C31.4396 57 24.5 50.0604 24.5 41.5Z" fill="url(#paint1_linear_13_38)"/>
<path fill-rule="evenodd" clip-rule="evenodd" d="M77.8787 41.2929L40.7071 4.12132C40.3166 3.7308 39.6834 3.7308 39.2929 4.12132L2.12132 41.2929C1.7308 41.6834 1.7308 42.3166 2.12132 42.7071L39.2929 79.8787C39.6834 80.2692 40.3166 80.2692 40.7071 79.8787L77.8787 42.7071C78.2692 42.3166 78.2692 41.6834 77.8787 41.2929ZM41.4142 3.41421C40.6332 2.63317 39.3668 2.63316 38.5858 3.41421L1.41421 40.5858C0.633166 41.3668 0.633165 42.6332 1.41421 43.4142L38.5858 80.5858C39.3668 81.3668 40.6332 81.3668 41.4142 80.5858L78.5858 43.4142C79.3668 42.6332 79.3668 41.3668 78.5858 40.5858L41.4142 3.41421Z" fill="#CCB264"/>
<path d="M89.216 34V32.656H89.632C90.1227 32.656 90.56 32.6027 90.944 32.496C91.3493 32.3893 91.6693 32.176 91.904 31.856C92.1387 31.5147 92.256 31.0133 92.256 30.352V14.672C92.256 14.032 92.128 13.5627 91.872 13.264C91.6373 12.944 91.3173 12.7413 90.912 12.656C90.528 12.5493 90.1013 12.496 89.632 12.496H89.216V11.152H98.208C100.896 11.152 102.88 11.7493 104.16 12.944C105.44 14.1173 106.08 15.7493 106.08 17.84C106.08 18.8 105.931 19.7173 105.632 20.592C105.333 21.4453 104.843 22.2133 104.16 22.896C103.499 23.5787 102.613 24.1227 101.504 24.528C100.416 24.912 99.0827 25.104 97.504 25.104H95.488V30.512C95.488 31.1307 95.6053 31.6 95.84 31.92C96.096 32.2187 96.416 32.4213 96.8 32.528C97.2053 32.6133 97.6427 32.656 98.112 32.656H99.168V34H89.216ZM97.184 23.6C98.144 23.6 98.9653 23.504 99.648 23.312C100.352 23.0987 100.917 22.768 101.344 22.32C101.792 21.872 102.112 21.296 102.304 20.592C102.517 19.8667 102.624 18.992 102.624 17.968C102.624 16.7733 102.464 15.792 102.144 15.024C101.824 14.2347 101.301 13.648 100.576 13.264C99.8507 12.88 98.88 12.688 97.664 12.688H95.488V23.6H97.184ZM113.873 34.32C112.934 34.32 112.081 34.1387 111.312 33.776C110.566 33.392 109.979 32.8267 109.553 32.08C109.126 31.312 108.913 30.352 108.913 29.2C108.913 27.4933 109.51 26.2347 110.705 25.424C111.921 24.6133 113.755 24.1653 116.209 24.08L118.865 23.984V22.064C118.865 21.296 118.801 20.624 118.673 20.048C118.545 19.4507 118.267 18.9813 117.841 18.64C117.414 18.2987 116.763 18.128 115.889 18.128C115.078 18.128 114.459 18.2773 114.033 18.576C113.606 18.8747 113.318 19.2907 113.169 19.824C113.041 20.336 112.977 20.9333 112.977 21.616C112.081 21.616 111.398 21.4667 110.929 21.168C110.481 20.848 110.257 20.3253 110.257 19.6C110.257 18.8533 110.513 18.256 111.025 17.808C111.558 17.36 112.262 17.04 113.137 16.848C114.011 16.6347 114.971 16.528 116.017 16.528C117.979 16.528 119.441 16.944 120.401 17.776C121.382 18.608 121.873 20.0373 121.873 22.064V30.352C121.873 30.9493 121.937 31.4187 122.065 31.76C122.193 32.08 122.406 32.3147 122.705 32.464C123.003 32.592 123.387 32.656 123.857 32.656H123.953V34H119.633L119.121 31.248H118.865C118.417 31.8453 117.979 32.3787 117.553 32.848C117.126 33.296 116.625 33.6587 116.049 33.936C115.494 34.192 114.769 34.32 113.873 34.32ZM114.609 32.336C115.483 32.336 116.23 32.1547 116.849 31.792C117.489 31.4293 117.979 30.9173 118.321 30.256C118.683 29.5733 118.865 28.784 118.865 27.888V25.296L116.817 25.392C115.601 25.4347 114.641 25.616 113.937 25.936C113.254 26.256 112.763 26.704 112.465 27.28C112.166 27.8347 112.016 28.528 112.016 29.36C112.016 30.0213 112.113 30.576 112.305 31.024C112.497 31.4507 112.785 31.7813 113.169 32.016C113.553 32.2293 114.033 32.336 114.609 32.336ZM126.4 34V32.656H126.496C126.986 32.656 127.424 32.6027 127.808 32.496C128.213 32.3893 128.533 32.176 128.768 31.856C129.002 31.5147 129.12 31.0133 129.12 30.352V20.368C129.12 19.728 128.992 19.2587 128.736 18.96C128.501 18.64 128.181 18.4373 127.776 18.352C127.392 18.2453 126.965 18.192 126.496 18.192H126.4V16.848H131.328L131.936 20.016H132.096C132.373 19.376 132.672 18.7893 132.992 18.256C133.312 17.7227 133.738 17.3067 134.272 17.008C134.805 16.688 135.541 16.528 136.48 16.528C137.653 16.528 138.517 16.7307 139.072 17.136C139.648 17.5413 139.936 18.1173 139.936 18.864C139.936 19.5253 139.701 20.0693 139.232 20.496C138.784 20.9227 138.026 21.136 136.96 21.136C136.96 20.5387 136.906 20.0587 136.8 19.696C136.693 19.3333 136.512 19.0667 136.256 18.896C136.021 18.7253 135.69 18.64 135.264 18.64C134.666 18.64 134.165 18.8747 133.76 19.344C133.354 19.8133 133.034 20.4107 132.8 21.136C132.565 21.8613 132.394 22.6187 132.288 23.408C132.181 24.176 132.128 24.8693 132.128 25.488V30.512C132.128 31.1307 132.245 31.6 132.48 31.92C132.736 32.2187 133.056 32.4213 133.44 32.528C133.845 32.6133 134.282 32.656 134.752 32.656H135.648V34H126.4ZM141.142 34V32.656H141.558C142.028 32.656 142.454 32.6133 142.838 32.528C143.244 32.4213 143.564 32.2187 143.798 31.92C144.054 31.6 144.182 31.1307 144.182 30.512V20.368C144.182 19.728 144.054 19.2587 143.798 18.96C143.564 18.64 143.244 18.4373 142.838 18.352C142.454 18.2453 142.028 18.192 141.558 18.192H141.462V16.848H147.19V30.352C147.19 31.0133 147.308 31.5147 147.542 31.856C147.777 32.176 148.097 32.3893 148.502 32.496C148.908 32.6027 149.345 32.656 149.814 32.656H150.23V34H141.142ZM145.558 13.648C145.046 13.648 144.609 13.4987 144.246 13.2C143.905 12.9013 143.734 12.3893 143.734 11.664C143.734 10.9173 143.905 10.4053 144.246 10.128C144.609 9.82933 145.046 9.68 145.558 9.68C146.049 9.68 146.476 9.82933 146.838 10.128C147.201 10.4053 147.382 10.9173 147.382 11.664C147.382 12.3893 147.201 12.9013 146.838 13.2C146.476 13.4987 146.049 13.648 145.558 13.648ZM151.232 34V32.656H151.488C151.979 32.656 152.416 32.6027 152.8 32.496C153.206 32.3893 153.526 32.176 153.76 31.856C153.995 31.5147 154.112 31.0133 154.112 30.352V13.2C154.112 12.56 153.984 12.0907 153.728 11.792C153.494 11.472 153.174 11.2693 152.768 11.184C152.384 11.0773 151.958 11.024 151.488 11.024H151.232V9.68H157.12V16.72C157.12 17.104 157.11 17.5093 157.088 17.936C157.067 18.3413 157.046 18.6933 157.024 18.992C157.003 19.2907 156.992 19.44 156.992 19.44H157.152C157.472 18.8 157.856 18.2667 158.304 17.84C158.774 17.392 159.296 17.0613 159.872 16.848C160.47 16.6347 161.131 16.528 161.856 16.528C163.691 16.528 165.088 17.0293 166.048 18.032C167.03 19.0133 167.52 20.6027 167.52 22.8V30.352C167.52 31.0133 167.627 31.5147 167.84 31.856C168.054 32.176 168.342 32.3893 168.704 32.496C169.088 32.6027 169.515 32.656 169.984 32.656H170.08V34H164.512V22.96C164.512 21.5733 164.246 20.496 163.712 19.728C163.2 18.96 162.294 18.576 160.992 18.576C160.118 18.576 159.392 18.7893 158.816 19.216C158.24 19.6427 157.814 20.2507 157.536 21.04C157.259 21.808 157.12 22.7147 157.12 23.76V30.512C157.12 31.1307 157.238 31.6 157.472 31.92C157.728 32.2187 158.048 32.4213 158.432 32.528C158.838 32.6133 159.275 32.656 159.744 32.656H159.84V34H151.232ZM177.529 34.32C176.59 34.32 175.737 34.1387 174.969 33.776C174.222 33.392 173.635 32.8267 173.209 32.08C172.782 31.312 172.569 30.352 172.569 29.2C172.569 27.4933 173.166 26.2347 174.361 25.424C175.577 24.6133 177.411 24.1653 179.865 24.08L182.521 23.984V22.064C182.521 21.296 182.457 20.624 182.329 20.048C182.201 19.4507 181.923 18.9813 181.497 18.64C181.07 18.2987 180.419 18.128 179.545 18.128C178.734 18.128 178.115 18.2773 177.689 18.576C177.262 18.8747 176.974 19.2907 176.825 19.824C176.697 20.336 176.633 20.9333 176.633 21.616C175.737 21.616 175.054 21.4667 174.585 21.168C174.137 20.848 173.913 20.3253 173.913 19.6C173.913 18.8533 174.169 18.256 174.681 17.808C175.214 17.36 175.918 17.04 176.793 16.848C177.667 16.6347 178.627 16.528 179.673 16.528C181.635 16.528 183.097 16.944 184.057 17.776C185.038 18.608 185.529 20.0373 185.529 22.064V30.352C185.529 30.9493 185.593 31.4187 185.721 31.76C185.849 32.08 186.062 32.3147 186.361 32.464C186.659 32.592 187.043 32.656 187.513 32.656H187.609V34H183.289L182.777 31.248H182.521C182.073 31.8453 181.635 32.3787 181.209 32.848C180.782 33.296 180.281 33.6587 179.705 33.936C179.15 34.192 178.425 34.32 177.529 34.32ZM178.265 32.336C179.139 32.336 179.886 32.1547 180.505 31.792C181.145 31.4293 181.635 30.9173 181.977 30.256C182.339 29.5733 182.521 28.784 182.521 27.888V25.296L180.473 25.392C179.257 25.4347 178.297 25.616 177.593 25.936C176.91 26.256 176.419 26.704 176.121 27.28C175.822 27.8347 175.673 28.528 175.673 29.36C175.673 30.0213 175.769 30.576 175.961 31.024C176.153 31.4507 176.441 31.7813 176.825 32.016C177.209 32.2293 177.689 32.336 178.265 32.336ZM190.056 34V32.656H190.152C190.643 32.656 191.08 32.6027 191.464 32.496C191.869 32.3893 192.189 32.176 192.424 31.856C192.659 31.5147 192.776 31.0133 192.776 30.352V20.368C192.776 19.728 192.648 19.2587 192.392 18.96C192.157 18.64 191.837 18.4373 191.432 18.352C191.048 18.2453 190.621 18.192 190.152 18.192H190.056V16.848H194.984L195.592 20.016H195.752C196.029 19.376 196.328 18.7893 196.648 18.256C196.968 17.7227 197.395 17.3067 197.928 17.008C198.461 16.688 199.197 16.528 200.136 16.528C201.309 16.528 202.173 16.7307 202.728 17.136C203.304 17.5413 203.592 18.1173 203.592 18.864C203.592 19.5253 203.357 20.0693 202.888 20.496C202.44 20.9227 201.683 21.136 200.616 21.136C200.616 20.5387 200.563 20.0587 200.456 19.696C200.349 19.3333 200.168 19.0667 199.912 18.896C199.677 18.7253 199.347 18.64 198.92 18.64C198.323 18.64 197.821 18.8747 197.416 19.344C197.011 19.8133 196.691 20.4107 196.456 21.136C196.221 21.8613 196.051 22.6187 195.944 23.408C195.837 24.176 195.784 24.8693 195.784 25.488V30.512C195.784 31.1307 195.901 31.6 196.136 31.92C196.392 32.2187 196.712 32.4213 197.096 32.528C197.501 32.6133 197.939 32.656 198.408 32.656H199.304V34H190.056ZM209.998 34.32C209.059 34.32 208.206 34.1387 207.438 33.776C206.691 33.392 206.104 32.8267 205.678 32.08C205.251 31.312 205.038 30.352 205.038 29.2C205.038 27.4933 205.635 26.2347 206.83 25.424C208.046 24.6133 209.88 24.1653 212.334 24.08L214.99 23.984V22.064C214.99 21.296 214.926 20.624 214.798 20.048C214.67 19.4507 214.392 18.9813 213.966 18.64C213.539 18.2987 212.888 18.128 212.014 18.128C211.203 18.128 210.584 18.2773 210.158 18.576C209.731 18.8747 209.443 19.2907 209.294 19.824C209.166 20.336 209.102 20.9333 209.102 21.616C208.206 21.616 207.523 21.4667 207.054 21.168C206.606 20.848 206.382 20.3253 206.382 19.6C206.382 18.8533 206.638 18.256 207.15 17.808C207.683 17.36 208.387 17.04 209.262 16.848C210.136 16.6347 211.096 16.528 212.142 16.528C214.104 16.528 215.566 16.944 216.526 17.776C217.507 18.608 217.998 20.0373 217.998 22.064V30.352C217.998 30.9493 218.062 31.4187 218.19 31.76C218.318 32.08 218.531 32.3147 218.83 32.464C219.128 32.592 219.512 32.656 219.982 32.656H220.078V34H215.758L215.246 31.248H214.99C214.542 31.8453 214.104 32.3787 213.678 32.848C213.251 33.296 212.75 33.6587 212.174 33.936C211.619 34.192 210.894 34.32 209.998 34.32ZM210.734 32.336C211.608 32.336 212.355 32.1547 212.974 31.792C213.614 31.4293 214.104 30.9173 214.446 30.256C214.808 29.5733 214.99 28.784 214.99 27.888V25.296L212.942 25.392C211.726 25.4347 210.766 25.616 210.062 25.936C209.379 26.256 208.888 26.704 208.59 27.28C208.291 27.8347 208.141 28.528 208.141 29.36C208.141 30.0213 208.238 30.576 208.43 31.024C208.622 31.4507 208.91 31.7813 209.294 32.016C209.678 32.2293 210.158 32.336 210.734 32.336ZM233.341 34.32C231.079 34.32 229.202 33.8293 227.709 32.848C226.215 31.8667 225.095 30.4907 224.349 28.72C223.623 26.9493 223.261 24.88 223.261 22.512C223.261 20.144 223.623 18.0853 224.349 16.336C225.095 14.5867 226.215 13.232 227.709 12.272C229.223 11.2907 231.111 10.8 233.373 10.8C235.527 10.8 237.341 11.2907 238.813 12.272C240.306 13.232 241.437 14.5973 242.205 16.368C242.994 18.1173 243.389 20.176 243.389 22.544C243.389 24.912 242.994 26.9813 242.205 28.752C241.437 30.5013 240.306 31.8667 238.813 32.848C237.319 33.8293 235.495 34.32 233.341 34.32ZM233.341 32.592C234.535 32.592 235.538 32.368 236.349 31.92C237.181 31.472 237.853 30.8213 238.365 29.968C238.877 29.0933 239.25 28.0373 239.485 26.8C239.719 25.5413 239.837 24.1227 239.837 22.544C239.837 20.9653 239.719 19.5573 239.485 18.32C239.25 17.0827 238.877 16.0373 238.365 15.184C237.874 14.3093 237.213 13.648 236.381 13.2C235.57 12.752 234.567 12.528 233.373 12.528C232.178 12.528 231.165 12.752 230.333 13.2C229.501 13.648 228.818 14.3093 228.285 15.184C227.773 16.0373 227.399 17.0827 227.165 18.32C226.93 19.5573 226.813 20.9653 226.813 22.544C226.813 24.1227 226.93 25.5413 227.165 26.8C227.399 28.0373 227.773 29.0933 228.285 29.968C228.818 30.8213 229.501 31.472 230.333 31.92C231.165 32.368 232.167 32.592 233.341 32.592ZM246.115 34V32.656H246.371C246.861 32.656 247.299 32.6027 247.683 32.496C248.088 32.3893 248.408 32.176 248.643 31.856C248.877 31.5147 248.995 31.0133 248.995 30.352V20.368C248.995 19.728 248.877 19.2587 248.643 18.96C248.408 18.64 248.099 18.4373 247.715 18.352C247.331 18.2453 246.904 18.192 246.435 18.192H246.275V16.848H251.459L251.875 19.44H252.035C252.483 18.6293 252.952 18.0213 253.443 17.616C253.955 17.1893 254.509 16.9013 255.107 16.752C255.704 16.6027 256.344 16.528 257.027 16.528C258.712 16.528 260.024 17.0293 260.963 18.032C261.923 19.0133 262.403 20.6027 262.403 22.8V30.352C262.403 31.0133 262.499 31.5147 262.691 31.856C262.904 32.176 263.192 32.3893 263.555 32.496C263.917 32.6027 264.333 32.656 264.803 32.656H264.963V34H259.395V22.96C259.395 21.5733 259.128 20.496 258.595 19.728C258.083 18.96 257.176 18.576 255.875 18.576C254.915 18.576 254.147 18.8213 253.571 19.312C253.016 19.7813 252.611 20.4107 252.355 21.2C252.12 21.9893 252.003 22.8427 252.003 23.76V30.512C252.003 31.1307 252.12 31.6 252.355 31.92C252.589 32.2187 252.899 32.4213 253.283 32.528C253.667 32.6133 254.093 32.656 254.563 32.656H254.723V34H246.115ZM266.26 34V32.656H266.676C267.166 32.656 267.604 32.6027 267.988 32.496C268.393 32.3893 268.713 32.176 268.948 31.856C269.182 31.5147 269.3 31.0133 269.3 30.352V13.2C269.3 12.56 269.172 12.0907 268.916 11.792C268.681 11.472 268.361 11.2693 267.956 11.184C267.572 11.0773 267.145 11.024 266.676 11.024H266.26V9.68H272.308V30.352C272.308 31.0133 272.425 31.5147 272.66 31.856C272.894 32.176 273.214 32.3893 273.62 32.496C274.025 32.6027 274.462 32.656 274.932 32.656H275.348V34H266.26ZM276.486 34V32.656H276.902C277.371 32.656 277.798 32.6133 278.182 32.528C278.587 32.4213 278.907 32.2187 279.142 31.92C279.398 31.6 279.526 31.1307 279.526 30.512V20.368C279.526 19.728 279.398 19.2587 279.142 18.96C278.907 18.64 278.587 18.4373 278.182 18.352C277.798 18.2453 277.371 18.192 276.902 18.192H276.806V16.848H282.534V30.352C282.534 31.0133 282.651 31.5147 282.886 31.856C283.121 32.176 283.441 32.3893 283.846 32.496C284.251 32.6027 284.689 32.656 285.158 32.656H285.574V34H276.486ZM280.902 13.648C280.39 13.648 279.953 13.4987 279.59 13.2C279.249 12.9013 279.078 12.3893 279.078 11.664C279.078 10.9173 279.249 10.4053 279.59 10.128C279.953 9.82933 280.39 9.68 280.902 9.68C281.393 9.68 281.819 9.82933 282.182 10.128C282.545 10.4053 282.726 10.9173 282.726 11.664C282.726 12.3893 282.545 12.9013 282.182 13.2C281.819 13.4987 281.393 13.648 280.902 13.648ZM286.896 34V32.656H287.152C287.643 32.656 288.08 32.6027 288.464 32.496C288.869 32.3893 289.189 32.176 289.424 31.856C289.659 31.5147 289.776 31.0133 289.776 30.352V20.368C289.776 19.728 289.659 19.2587 289.424 18.96C289.189 18.64 288.88 18.4373 288.496 18.352C288.112 18.2453 287.685 18.192 287.216 18.192H287.056V16.848H292.24L292.656 19.44H292.816C293.264 18.6293 293.733 18.0213 294.224 17.616C294.736 17.1893 295.291 16.9013 295.888 16.752C296.485 16.6027 297.125 16.528 297.808 16.528C299.493 16.528 300.805 17.0293 301.744 18.032C302.704 19.0133 303.184 20.6027 303.184 22.8V30.352C303.184 31.0133 303.28 31.5147 303.472 31.856C303.685 32.176 303.973 32.3893 304.336 32.496C304.699 32.6027 305.115 32.656 305.584 32.656H305.744V34H300.176V22.96C300.176 21.5733 299.909 20.496 299.376 19.728C298.864 18.96 297.957 18.576 296.656 18.576C295.696 18.576 294.928 18.8213 294.352 19.312C293.797 19.7813 293.392 20.4107 293.136 21.2C292.901 21.9893 292.784 22.8427 292.784 23.76V30.512C292.784 31.1307 292.901 31.6 293.136 31.92C293.371 32.2187 293.68 32.4213 294.064 32.528C294.448 32.6133 294.875 32.656 295.344 32.656H295.504V34H286.896ZM315.809 34.32C313.484 34.32 311.66 33.552 310.337 32.016C309.036 30.48 308.385 28.3253 308.385 25.552C308.385 22.5653 309.004 20.3147 310.241 18.8C311.478 17.2853 313.228 16.528 315.489 16.528C317.558 16.528 319.18 17.168 320.353 18.448C321.548 19.728 322.145 21.6373 322.145 24.176V25.648H311.489C311.532 27.2053 311.734 28.4747 312.097 29.456C312.46 30.4373 312.982 31.1627 313.665 31.632C314.369 32.08 315.233 32.304 316.257 32.304C317.004 32.304 317.665 32.1973 318.241 31.984C318.838 31.7707 319.35 31.4933 319.777 31.152C320.225 30.8107 320.577 30.448 320.833 30.064C320.982 30.128 321.121 30.256 321.249 30.448C321.377 30.64 321.441 30.8747 321.441 31.152C321.441 31.5787 321.238 32.0373 320.833 32.528C320.428 33.0187 319.809 33.4453 318.977 33.808C318.145 34.1493 317.089 34.32 315.809 34.32ZM318.913 23.92C318.913 22.7893 318.796 21.7973 318.561 20.944C318.348 20.0907 317.985 19.4293 317.473 18.96C316.961 18.4907 316.278 18.256 315.425 18.256C314.636 18.256 313.964 18.48 313.409 18.928C312.876 19.3547 312.449 19.984 312.129 20.816C311.83 21.648 311.638 22.6827 311.553 23.92H318.913Z" fill="#274F73"/>
<rect x="84" y="41" width="243" height="2" rx="1" fill="#944125"/>
<path d="M116.336 50.576C117.744 50.576 118.768 50.8693 119.408 51.456C120.048 52.0427 120.368 52.8693 120.368 53.936C120.368 54.4053 120.293 54.8587 120.144 55.296C120.005 55.7227 119.771 56.1067 119.44 56.448C119.109 56.7893 118.667 57.0613 118.112 57.264C117.568 57.456 116.896 57.552 116.096 57.552H114.88V62H113.456V50.576H116.336ZM116.224 51.808H114.88V56.32H115.936C116.597 56.32 117.147 56.2453 117.584 56.096C118.021 55.936 118.347 55.6853 118.56 55.344C118.784 55.0027 118.896 54.5547 118.896 54C118.896 53.264 118.677 52.7147 118.24 52.352C117.813 51.9893 117.141 51.808 116.224 51.808ZM127.413 53.28C128.394 53.28 129.125 53.5093 129.605 53.968C130.095 54.4267 130.341 55.1573 130.341 56.16V62H129.333L129.061 60.784H128.997C128.762 61.0933 128.522 61.3547 128.277 61.568C128.042 61.7707 127.765 61.92 127.445 62.016C127.135 62.112 126.751 62.16 126.293 62.16C125.813 62.16 125.381 62.0693 124.997 61.888C124.613 61.7067 124.309 61.4293 124.085 61.056C123.861 60.672 123.749 60.192 123.749 59.616C123.749 58.7627 124.063 58.1067 124.693 57.648C125.322 57.1787 126.293 56.9227 127.605 56.88L128.965 56.832V56.32C128.965 55.6053 128.821 55.1093 128.533 54.832C128.255 54.5547 127.855 54.416 127.333 54.416C126.917 54.416 126.517 54.4853 126.133 54.624C125.759 54.752 125.402 54.9013 125.061 55.072L124.629 54.016C124.991 53.8133 125.413 53.6427 125.893 53.504C126.373 53.3547 126.879 53.28 127.413 53.28ZM127.797 57.856C126.815 57.8987 126.133 58.0693 125.749 58.368C125.375 58.6667 125.189 59.088 125.189 59.632C125.189 60.112 125.322 60.464 125.589 60.688C125.855 60.912 126.202 61.024 126.629 61.024C127.29 61.024 127.845 60.8267 128.293 60.432C128.741 60.0267 128.965 59.408 128.965 58.576V57.808L127.797 57.856ZM138.569 53.264C138.718 53.264 138.878 53.2747 139.049 53.296C139.219 53.3067 139.369 53.328 139.497 53.36L139.337 54.656C139.209 54.624 139.065 54.5973 138.905 54.576C138.755 54.5547 138.611 54.544 138.473 54.544C138.163 54.544 137.87 54.6133 137.593 54.752C137.315 54.8907 137.065 55.088 136.841 55.344C136.627 55.5893 136.457 55.888 136.329 56.24C136.201 56.592 136.137 56.9867 136.137 57.424V62H134.745V53.424H135.881L136.041 54.992H136.105C136.275 54.672 136.478 54.384 136.713 54.128C136.958 53.8613 137.235 53.6533 137.545 53.504C137.854 53.344 138.195 53.264 138.569 53.264ZM144.323 53.424V62H142.931V53.424H144.323ZM143.635 50.208C143.848 50.208 144.035 50.2827 144.195 50.432C144.355 50.5707 144.435 50.7947 144.435 51.104C144.435 51.4027 144.355 51.6267 144.195 51.776C144.035 51.9253 143.848 52 143.635 52C143.411 52 143.219 51.9253 143.059 51.776C142.899 51.6267 142.819 51.4027 142.819 51.104C142.819 50.7947 142.899 50.5707 143.059 50.432C143.219 50.2827 143.411 50.208 143.635 50.208ZM150.164 53.408C150.164 53.6107 150.153 53.8187 150.132 54.032C150.121 54.2453 150.105 54.4373 150.084 54.608H150.18C150.351 54.3093 150.564 54.064 150.82 53.872C151.087 53.68 151.375 53.536 151.684 53.44C152.004 53.3333 152.335 53.28 152.676 53.28C153.327 53.28 153.871 53.392 154.308 53.616C154.745 53.8293 155.076 54.1653 155.3 54.624C155.524 55.0827 155.636 55.68 155.636 56.416V62H154.244V56.512C154.244 55.8187 154.1 55.3013 153.812 54.96C153.524 54.6187 153.081 54.448 152.484 54.448C151.897 54.448 151.433 54.5707 151.092 54.816C150.751 55.0507 150.511 55.4027 150.372 55.872C150.233 56.3307 150.164 56.896 150.164 57.568V62H148.772V49.84H150.164V53.408ZM163.124 53.28C164.105 53.28 164.836 53.5093 165.316 53.968C165.807 54.4267 166.052 55.1573 166.052 56.16V62H165.044L164.772 60.784H164.708C164.473 61.0933 164.233 61.3547 163.988 61.568C163.753 61.7707 163.476 61.92 163.156 62.016C162.847 62.112 162.463 62.16 162.004 62.16C161.524 62.16 161.092 62.0693 160.708 61.888C160.324 61.7067 160.02 61.4293 159.796 61.056C159.572 60.672 159.46 60.192 159.46 59.616C159.46 58.7627 159.775 58.1067 160.404 57.648C161.033 57.1787 162.004 56.9227 163.316 56.88L164.676 56.832V56.32C164.676 55.6053 164.532 55.1093 164.244 54.832C163.967 54.5547 163.567 54.416 163.044 54.416C162.628 54.416 162.228 54.4853 161.844 54.624C161.471 54.752 161.113 54.9013 160.772 55.072L160.34 54.016C160.703 53.8133 161.124 53.6427 161.604 53.504C162.084 53.3547 162.591 53.28 163.124 53.28ZM163.508 57.856C162.527 57.8987 161.844 58.0693 161.46 58.368C161.087 58.6667 160.9 59.088 160.9 59.632C160.9 60.112 161.033 60.464 161.3 60.688C161.567 60.912 161.913 61.024 162.34 61.024C163.001 61.024 163.556 60.8267 164.004 60.432C164.452 60.0267 164.676 59.408 164.676 58.576V57.808L163.508 57.856ZM174.28 53.264C174.429 53.264 174.589 53.2747 174.76 53.296C174.931 53.3067 175.08 53.328 175.208 53.36L175.048 54.656C174.92 54.624 174.776 54.5973 174.616 54.576C174.467 54.5547 174.323 54.544 174.184 54.544C173.875 54.544 173.581 54.6133 173.304 54.752C173.027 54.8907 172.776 55.088 172.552 55.344C172.339 55.5893 172.168 55.888 172.04 56.24C171.912 56.592 171.848 56.9867 171.848 57.424V62H170.456V53.424H171.592L171.752 54.992H171.816C171.987 54.672 172.189 54.384 172.424 54.128C172.669 53.8613 172.947 53.6533 173.256 53.504C173.565 53.344 173.907 53.264 174.28 53.264ZM181.417 53.28C182.398 53.28 183.129 53.5093 183.609 53.968C184.1 54.4267 184.345 55.1573 184.345 56.16V62H183.337L183.065 60.784H183.001C182.766 61.0933 182.526 61.3547 182.281 61.568C182.046 61.7707 181.769 61.92 181.449 62.016C181.14 62.112 180.756 62.16 180.297 62.16C179.817 62.16 179.385 62.0693 179.001 61.888C178.617 61.7067 178.313 61.4293 178.089 61.056C177.865 60.672 177.753 60.192 177.753 59.616C177.753 58.7627 178.068 58.1067 178.697 57.648C179.326 57.1787 180.297 56.9227 181.609 56.88L182.969 56.832V56.32C182.969 55.6053 182.825 55.1093 182.537 54.832C182.26 54.5547 181.86 54.416 181.337 54.416C180.921 54.416 180.521 54.4853 180.137 54.624C179.764 54.752 179.406 54.9013 179.065 55.072L178.633 54.016C178.996 53.8133 179.417 53.6427 179.897 53.504C180.377 53.3547 180.884 53.28 181.417 53.28ZM181.801 57.856C180.82 57.8987 180.137 58.0693 179.753 58.368C179.38 58.6667 179.193 59.088 179.193 59.632C179.193 60.112 179.326 60.464 179.593 60.688C179.86 60.912 180.206 61.024 180.633 61.024C181.294 61.024 181.849 60.8267 182.297 60.432C182.745 60.0267 182.969 59.408 182.969 58.576V57.808L181.801 57.856ZM198.333 56.272C198.333 57.1573 198.226 57.9627 198.013 58.688C197.8 59.4027 197.485 60.0213 197.069 60.544C196.653 61.0667 196.136 61.4667 195.517 61.744C194.898 62.0213 194.184 62.16 193.373 62.16C192.53 62.16 191.794 62.0213 191.165 61.744C190.546 61.456 190.029 61.056 189.613 60.544C189.208 60.0213 188.904 59.3973 188.701 58.672C188.498 57.9467 188.397 57.1413 188.397 56.256C188.397 55.0827 188.578 54.0587 188.941 53.184C189.304 52.3093 189.853 51.6267 190.589 51.136C191.336 50.6453 192.269 50.4 193.389 50.4C194.466 50.4 195.373 50.6453 196.109 51.136C196.845 51.616 197.4 52.2987 197.773 53.184C198.146 54.0587 198.333 55.088 198.333 56.272ZM189.901 56.272C189.901 57.232 190.024 58.0587 190.269 58.752C190.514 59.4453 190.893 59.9787 191.405 60.352C191.928 60.7253 192.584 60.912 193.373 60.912C194.173 60.912 194.829 60.7253 195.341 60.352C195.853 59.9787 196.226 59.4453 196.461 58.752C196.706 58.0587 196.829 57.232 196.829 56.272C196.829 54.832 196.552 53.7067 195.997 52.896C195.453 52.0747 194.584 51.664 193.389 51.664C192.589 51.664 191.928 51.8507 191.405 52.224C190.893 52.5867 190.514 53.1147 190.269 53.808C190.024 54.4907 189.901 55.312 189.901 56.272ZM206.371 53.264C207.331 53.264 208.056 53.5147 208.547 54.016C209.048 54.5067 209.299 55.3067 209.299 56.416V62H207.907V56.512C207.907 55.8187 207.763 55.3013 207.475 54.96C207.187 54.6187 206.744 54.448 206.147 54.448C205.272 54.448 204.664 54.7147 204.323 55.248C203.992 55.7813 203.827 56.5493 203.827 57.552V62H202.435V53.424H203.555L203.763 54.592H203.843C204.013 54.2933 204.232 54.048 204.499 53.856C204.765 53.6533 205.059 53.504 205.379 53.408C205.699 53.312 206.029 53.264 206.371 53.264ZM215.09 62H213.698V49.84H215.09V62ZM220.948 53.424V62H219.556V53.424H220.948ZM220.26 50.208C220.474 50.208 220.66 50.2827 220.82 50.432C220.98 50.5707 221.06 50.7947 221.06 51.104C221.06 51.4027 220.98 51.6267 220.82 51.776C220.66 51.9253 220.474 52 220.26 52C220.036 52 219.844 51.9253 219.684 51.776C219.524 51.6267 219.444 51.4027 219.444 51.104C219.444 50.7947 219.524 50.5707 219.684 50.432C219.844 50.2827 220.036 50.208 220.26 50.208ZM229.334 53.264C230.294 53.264 231.019 53.5147 231.51 54.016C232.011 54.5067 232.262 55.3067 232.262 56.416V62H230.87V56.512C230.87 55.8187 230.726 55.3013 230.438 54.96C230.15 54.6187 229.707 54.448 229.11 54.448C228.235 54.448 227.627 54.7147 227.286 55.248C226.955 55.7813 226.79 56.5493 226.79 57.552V62H225.398V53.424H226.518L226.726 54.592H226.806C226.976 54.2933 227.195 54.048 227.462 53.856C227.728 53.6533 228.022 53.504 228.342 53.408C228.662 53.312 228.992 53.264 229.334 53.264ZM239.797 53.264C240.491 53.264 241.088 53.424 241.589 53.744C242.091 54.064 242.475 54.5173 242.741 55.104C243.019 55.68 243.157 56.3573 243.157 57.136V57.984H237.653C237.675 58.9547 237.904 59.696 238.341 60.208C238.779 60.7093 239.392 60.96 240.181 60.96C240.693 60.96 241.147 60.912 241.541 60.816C241.947 60.7093 242.363 60.56 242.789 60.368V61.6C242.373 61.792 241.963 61.9307 241.557 62.016C241.163 62.112 240.683 62.16 240.117 62.16C239.349 62.16 238.672 61.9947 238.085 61.664C237.499 61.3333 237.04 60.8427 236.709 60.192C236.379 59.5307 236.213 58.7253 236.213 57.776C236.213 56.8373 236.363 56.032 236.661 55.36C236.96 54.688 237.376 54.1707 237.909 53.808C238.453 53.4453 239.083 53.264 239.797 53.264ZM239.797 54.416C239.179 54.416 238.688 54.6347 238.325 55.072C237.963 55.4987 237.749 56.096 237.685 56.864H241.717C241.717 56.3733 241.648 55.9467 241.509 55.584C241.371 55.2213 241.157 54.9387 240.869 54.736C240.592 54.5227 240.235 54.416 239.797 54.416ZM246.905 61.136C246.905 60.7413 246.996 60.464 247.177 60.304C247.358 60.144 247.582 60.064 247.849 60.064C248.116 60.064 248.345 60.144 248.537 60.304C248.729 60.464 248.825 60.7413 248.825 61.136C248.825 61.52 248.729 61.7973 248.537 61.968C248.345 62.1387 248.116 62.224 247.849 62.224C247.582 62.224 247.358 62.1387 247.177 61.968C246.996 61.7973 246.905 61.52 246.905 61.136ZM256.328 62.16C255.602 62.16 254.962 62.0053 254.408 61.696C253.853 61.3867 253.416 60.9067 253.096 60.256C252.786 59.6053 252.632 58.7733 252.632 57.76C252.632 56.704 252.797 55.8453 253.128 55.184C253.458 54.5227 253.906 54.0373 254.472 53.728C255.048 53.4187 255.698 53.264 256.424 53.264C256.84 53.264 257.24 53.312 257.624 53.408C258.018 53.4933 258.338 53.6 258.584 53.728L258.152 54.896C257.906 54.8 257.618 54.7093 257.288 54.624C256.968 54.5387 256.669 54.496 256.392 54.496C255.869 54.496 255.437 54.6187 255.096 54.864C254.754 55.1093 254.498 55.472 254.328 55.952C254.157 56.432 254.072 57.0293 254.072 57.744C254.072 58.4267 254.157 59.008 254.328 59.488C254.498 59.968 254.749 60.3307 255.08 60.576C255.421 60.8213 255.837 60.944 256.328 60.944C256.765 60.944 257.154 60.896 257.496 60.8C257.837 60.704 258.152 60.5867 258.44 60.448V61.696C258.162 61.8453 257.858 61.9573 257.528 62.032C257.197 62.1173 256.797 62.16 256.328 62.16ZM269.321 57.696C269.321 58.4107 269.231 59.0453 269.049 59.6C268.879 60.144 268.628 60.608 268.297 60.992C267.967 61.376 267.567 61.6693 267.097 61.872C266.628 62.064 266.105 62.16 265.529 62.16C264.996 62.16 264.5 62.064 264.041 61.872C263.593 61.6693 263.199 61.376 262.857 60.992C262.527 60.608 262.271 60.144 262.089 59.6C261.908 59.0453 261.817 58.4107 261.817 57.696C261.817 56.7467 261.967 55.9467 262.265 55.296C262.575 54.6347 263.012 54.1333 263.577 53.792C264.143 53.44 264.809 53.264 265.577 53.264C266.313 53.264 266.959 53.44 267.513 53.792C268.079 54.1333 268.521 54.6347 268.841 55.296C269.161 55.9467 269.321 56.7467 269.321 57.696ZM263.257 57.696C263.257 58.368 263.337 58.9547 263.497 59.456C263.657 59.9467 263.908 60.3253 264.249 60.592C264.591 60.8587 265.028 60.992 265.561 60.992C266.095 60.992 266.532 60.8587 266.873 60.592C267.215 60.3253 267.465 59.9467 267.625 59.456C267.796 58.9547 267.881 58.368 267.881 57.696C267.881 57.0133 267.796 56.432 267.625 55.952C267.465 55.472 267.215 55.104 266.873 54.848C266.532 54.5813 266.089 54.448 265.545 54.448C264.745 54.448 264.164 54.736 263.801 55.312C263.439 55.888 263.257 56.6827 263.257 57.696ZM282.222 53.264C283.14 53.264 283.822 53.5147 284.27 54.016C284.718 54.5067 284.942 55.3067 284.942 56.416V62H283.566V56.48C283.566 55.808 283.433 55.3013 283.166 54.96C282.91 54.6187 282.505 54.448 281.95 54.448C281.182 54.448 280.633 54.688 280.302 55.168C279.982 55.648 279.822 56.3467 279.822 57.264V62H278.43V56.48C278.43 56.032 278.372 55.6587 278.254 55.36C278.137 55.0507 277.961 54.8213 277.726 54.672C277.492 54.5227 277.188 54.448 276.814 54.448C276.281 54.448 275.86 54.5707 275.55 54.816C275.241 55.0507 275.022 55.3973 274.894 55.856C274.766 56.3147 274.702 56.88 274.702 57.552V62H273.31V53.424H274.43L274.638 54.592H274.718C274.889 54.2933 275.097 54.048 275.342 53.856C275.588 53.6533 275.86 53.504 276.158 53.408C276.457 53.312 276.766 53.264 277.086 53.264C277.705 53.264 278.222 53.3813 278.638 53.616C279.054 53.8507 279.358 54.2133 279.55 54.704H279.646C279.913 54.2133 280.276 53.8507 280.734 53.616C281.204 53.3813 281.7 53.264 282.222 53.264Z" fill="#944125"/>
<defs>
<linearGradient id="paint0_linear_13_38" x1="40" y1="57" x2="40" y2="27" gradientUnits="userSpaceOnUse">
<stop stop-color="#DAC889"/>
<stop offset="0.38" stop-color="#B59638"/>
<stop offset="0.75" stop-color="#F2D377"/>
<stop offset="1" stop-color="#E9D8A6"/>
</linearGradient>
<linearGradient id="paint1_linear_13_38" x1="24.5" y1="41.5" x2="55.5" y2="41.5" gradientUnits="userSpaceOnUse">
<stop stop-color="#E9D8A6"/>
<stop offset="0.25" stop-color="#D1B666"/>
<stop offset="0.62" stop-color="#948149"/>
<stop offset="1" stop-color="#D1B666"/>
</linearGradient>
</defs>
</svg>
